<svg width="615" height="414" viewBox="0 0 615 414" fill="none" xmlns="http://www.w3.org/2000/svg">
  <path d="M310.008 116.423C197.442 130.463 134.034 101.181 79.3189 128.927C10.2257 163.995 9.28165 217.422 53.281 288.358C93.2719 352.822 186.697 380.883 270.079 373.228C372.33 363.843 436.536 302.853 468.952 272.06C571.777 174.459 594.733 83.6519 523.45 51.7435C482.329 33.3366 454.571 98.3605 310.008 116.423Z" fill="url(#paint0_linear)" />
  <path d="M210.967 351.897H214.74L206.685 212.912H202.912L210.967 351.897Z" fill="#9D9D9D" />
  <path d="M395.294 351.897H399.067L391.011 212.912H387.238L395.294 351.897Z" fill="#9D9D9D" />
  <path d="M186.971 351.897H183.197L191.253 212.912H195.026L186.971 351.897Z" fill="#9D9D9D" />
  <path d="M371.297 351.897H367.524L375.579 212.912H379.353L371.297 351.897Z" fill="#9D9D9D" />
  <g opacity="0.2">
    <path opacity="0.2" d="M226.568 222.77H215.726V318.896L208.826 321.015V324.297H233.468V321.015L226.568 318.896V222.77Z" fill="white" />
  </g>
  <path d="M398.082 208.898V43.4426C398.082 40.6811 395.843 38.4426 393.082 38.4426L187.212 38.4426C184.451 38.4426 182.212 40.6811 182.212 43.4426V208.898C182.212 211.66 184.451 213.898 187.212 213.898H393.082C395.843 213.898 398.082 211.66 398.082 208.898Z" fill="#2E353A" />
  <path d="M388.28 43.3119H192.012C189.25 43.3119 187.012 45.5505 187.012 48.3119V203.93C187.012 206.692 189.25 208.93 192.012 208.93H388.281C391.042 208.93 393.281 206.692 393.281 203.93V48.3119C393.281 45.5505 391.042 43.3119 388.28 43.3119Z" fill="#F9F8FF" />
  <g opacity="0.4">
    <path d="M348.714 70.2823C349.133 70.2823 349.501 70.3934 349.818 70.6155C350.142 70.8376 350.389 71.1359 350.561 71.5103C350.732 71.8784 350.818 72.2783 350.818 72.7098C350.818 73.1541 350.722 73.5634 350.532 73.9379C350.348 74.3059 350.094 74.5979 349.77 74.8137C349.453 75.0294 349.101 75.1373 348.714 75.1373C348.428 75.1373 348.152 75.0802 347.886 74.966C347.619 74.8454 347.413 74.6804 347.267 74.471L347.172 75.0421H346.41V67.9024H347.267V70.9201C347.438 70.7234 347.651 70.5679 347.905 70.4537C348.165 70.3394 348.435 70.2823 348.714 70.2823ZM348.609 74.3758C349.009 74.3758 349.329 74.2171 349.571 73.8998C349.818 73.5761 349.942 73.1795 349.942 72.7098C349.942 72.2275 349.818 71.8308 349.571 71.5199C349.329 71.2025 349.009 71.0439 348.609 71.0439C348.216 71.0439 347.886 71.1898 347.619 71.4818C347.352 71.7674 347.219 72.1767 347.219 72.7098C347.219 73.262 347.349 73.6776 347.61 73.9569C347.876 74.2361 348.209 74.3758 348.609 74.3758Z" fill="#263238" />
    <path d="M316.957 102.139V98.4718H313.291" stroke="#263238" stroke-width="0.793303" stroke-miterlimit="10" />
    <path d="M313.311 60.1279V101.528H379.353L313.311 60.1279Z" stroke="#263238" stroke-miterlimit="10" />
    <path d="M341.237 110.889C340.73 110.889 340.292 110.784 339.924 110.575C339.562 110.366 339.289 110.08 339.105 109.718C338.921 109.35 338.829 108.941 338.829 108.49C338.829 107.754 339.035 107.161 339.448 106.71C339.866 106.259 340.485 106.034 341.304 106.034C341.786 106.034 342.211 106.126 342.58 106.31L342.446 107.062C342.059 106.885 341.672 106.796 341.285 106.796C340.777 106.796 340.387 106.942 340.114 107.234C339.841 107.519 339.705 107.925 339.705 108.452C339.705 108.979 339.835 109.391 340.095 109.69C340.361 109.988 340.752 110.137 341.266 110.137C341.678 110.137 342.075 110.042 342.456 109.852L342.57 110.537C342.43 110.632 342.237 110.715 341.989 110.784C341.748 110.854 341.497 110.889 341.237 110.889Z" fill="#263238" />
    <path d="M307.091 83.7921C306.659 83.7921 306.31 83.6652 306.044 83.4113C305.783 83.1575 305.653 82.8338 305.653 82.4403C305.653 81.8501 305.933 81.4281 306.491 81.1742C307.049 80.9203 307.7 80.7871 308.443 80.7744C308.443 80.3555 308.36 80.0731 308.195 79.9271C308.036 79.7748 307.779 79.6987 307.424 79.6987C307.227 79.6987 307.03 79.7304 306.834 79.7938C306.637 79.851 306.424 79.9589 306.196 80.1175L306.072 79.4226C306.263 79.2766 306.497 79.1592 306.777 79.0704C307.056 78.9815 307.348 78.9371 307.652 78.9371C308.052 78.9371 308.37 79.0069 308.604 79.1465C308.846 79.2861 309.02 79.5178 309.128 79.8414C309.242 80.1651 309.299 80.6094 309.299 81.1742V82.1262C309.299 82.38 309.309 82.5736 309.328 82.7069C309.353 82.8338 309.404 82.9322 309.48 83.002C309.556 83.0718 309.674 83.1067 309.832 83.1067H309.918L309.785 83.7921H309.718C309.452 83.7921 309.242 83.7667 309.09 83.7159C308.938 83.6652 308.82 83.5922 308.738 83.497C308.661 83.4018 308.588 83.2717 308.519 83.1067C308.125 83.5636 307.649 83.7921 307.091 83.7921ZM307.253 83.1067C307.481 83.1067 307.7 83.0496 307.909 82.9353C308.125 82.8211 308.303 82.6688 308.443 82.4784V81.3646C307.757 81.39 307.265 81.482 306.967 81.6407C306.675 81.793 306.529 82.0437 306.529 82.3927C306.529 82.6339 306.593 82.8147 306.719 82.9353C306.853 83.0496 307.03 83.1067 307.253 83.1067Z" fill="#263238" />
    <path d="M247.268 152.784H273.882" stroke="#263238" stroke-miterlimit="10" />
    <path d="M247.268 160.67H262.054" stroke="#263238" stroke-miterlimit="10" />
    <path d="M247.268 166.584H267.968" stroke="#263238" stroke-miterlimit="10" />
    <path d="M247.268 173.484H265.011" stroke="#263238" stroke-miterlimit="10" />
    <path d="M307.314 157.005C307.733 157.005 308.101 157.116 308.418 157.338C308.742 157.56 308.989 157.858 309.161 158.233C309.332 158.601 309.418 159.001 309.418 159.432C309.418 159.877 309.323 160.286 309.132 160.66C308.948 161.028 308.694 161.32 308.371 161.536C308.053 161.752 307.701 161.86 307.314 161.86C307.028 161.86 306.752 161.803 306.486 161.689C306.219 161.568 306.013 161.403 305.867 161.193L305.772 161.765H305.01V154.625H305.867V157.643C306.038 157.446 306.251 157.29 306.505 157.176C306.765 157.062 307.035 157.005 307.314 157.005ZM307.209 161.098C307.609 161.098 307.929 160.94 308.171 160.622C308.418 160.299 308.542 159.902 308.542 159.432C308.542 158.95 308.418 158.553 308.171 158.242C307.929 157.925 307.609 157.766 307.209 157.766C306.816 157.766 306.486 157.912 306.219 158.204C305.953 158.49 305.819 158.899 305.819 159.432C305.819 159.984 305.949 160.4 306.21 160.679C306.476 160.959 306.809 161.098 307.209 161.098Z" fill="#263238" />
    <path d="M307.162 175.63C306.654 175.63 306.216 175.525 305.848 175.316C305.486 175.107 305.213 174.821 305.029 174.459C304.845 174.091 304.753 173.682 304.753 173.231C304.753 172.495 304.959 171.902 305.372 171.451C305.791 171 306.41 170.775 307.228 170.775C307.711 170.775 308.136 170.867 308.504 171.051L308.371 171.803C307.983 171.626 307.596 171.537 307.209 171.537C306.701 171.537 306.311 171.683 306.038 171.975C305.765 172.26 305.629 172.666 305.629 173.193C305.629 173.72 305.759 174.132 306.019 174.431C306.286 174.729 306.676 174.878 307.19 174.878C307.603 174.878 307.999 174.783 308.38 174.593L308.494 175.278C308.355 175.373 308.161 175.456 307.914 175.525C307.672 175.595 307.422 175.63 307.162 175.63Z" fill="#263238" />
    <path d="M306.105 148.08C305.674 148.08 305.325 147.953 305.058 147.699C304.798 147.445 304.668 147.121 304.668 146.728C304.668 146.138 304.947 145.716 305.506 145.462C306.064 145.208 306.715 145.075 307.457 145.062C307.457 144.643 307.375 144.361 307.21 144.215C307.051 144.062 306.794 143.986 306.439 143.986C306.242 143.986 306.045 144.018 305.848 144.081C305.652 144.139 305.439 144.246 305.211 144.405L305.087 143.71C305.277 143.564 305.512 143.447 305.791 143.358C306.07 143.269 306.362 143.225 306.667 143.225C307.067 143.225 307.384 143.294 307.619 143.434C307.86 143.574 308.035 143.805 308.143 144.129C308.257 144.453 308.314 144.897 308.314 145.462V146.414C308.314 146.668 308.323 146.861 308.343 146.994C308.368 147.121 308.419 147.22 308.495 147.29C308.571 147.359 308.688 147.394 308.847 147.394H308.933L308.799 148.08H308.733C308.466 148.08 308.257 148.054 308.105 148.003C307.952 147.953 307.835 147.88 307.752 147.785C307.676 147.689 307.603 147.559 307.533 147.394C307.14 147.851 306.664 148.08 306.105 148.08ZM306.267 147.394C306.496 147.394 306.715 147.337 306.924 147.223C307.14 147.109 307.318 146.956 307.457 146.766V145.652C306.772 145.678 306.28 145.77 305.982 145.928C305.69 146.081 305.544 146.331 305.544 146.68C305.544 146.921 305.607 147.102 305.734 147.223C305.867 147.337 306.045 147.394 306.267 147.394Z" fill="#263238" />
    <path d="M320.388 148.674H377.559" stroke="#263238" stroke-miterlimit="10" />
    <path d="M320.388 161.488H377.559" stroke="#263238" stroke-miterlimit="10" />
    <path d="M320.388 174.302H377.559" stroke="#263238" stroke-miterlimit="10" />
    <path d="M222.872 180.936C232.807 180.936 240.861 172.882 240.861 162.947C240.861 153.011 232.807 144.957 222.872 144.957C212.937 144.957 204.883 153.011 204.883 162.947C204.883 172.882 212.937 180.936 222.872 180.936Z" stroke="#263238" stroke-width="0.793303" stroke-miterlimit="10" />
    <path d="M222.902 144.899V163.134H241.137" stroke="#263238" stroke-miterlimit="10" />
  </g>
  <path d="M426.904 132.696L411.684 123.824C409.258 124.006 406.819 123.893 404.42 123.489C400.477 122.809 399.629 122.77 400.102 119.665C400.575 116.56 399.915 112.42 401.088 111.986C402.261 111.552 410.561 115.052 412 117.427L427.357 122.917L426.904 132.696Z" fill="#B97964" />
  <path d="M471.99 117.663V135.406C471.99 135.406 468.205 136.658 463.503 137.969C458.111 139.467 451.517 141.044 448.086 140.926C441.679 140.611 419.994 129.354 419.994 129.354L423.936 121.843C423.936 121.843 447.593 129.906 450.551 129.324C453.508 128.743 471.99 117.663 471.99 117.663Z" fill="#FFB864" />
  <path opacity="0.2" d="M471.99 126.308V135.416C471.99 135.416 468.205 136.668 463.503 137.979C465.238 132.695 469.565 128.388 471.99 126.308Z" fill="black" />
  <path d="M475.933 180.818C475.933 180.818 465.248 237.752 462.399 261.133C458.673 291.631 443.444 336.244 443.444 336.244L449.536 337.821C449.536 337.821 471.004 299.911 475.164 265.795C492.217 230.931 493.587 187.994 493.587 187.994L475.933 180.818Z" fill="#B97964" />
  <path d="M432.147 350.044C433.131 349.591 434.191 349.323 435.272 349.255C435.272 349.255 439.018 347.047 442.734 338.491H446.903C447.608 338.501 448.293 338.726 448.865 339.137C449.438 339.548 449.871 340.124 450.107 340.788C450.175 340.975 450.215 341.171 450.225 341.369C450.182 342.361 450.077 343.348 449.91 344.327C449.292 347.658 448.475 350.949 447.465 354.184L446.755 353.996L448.047 347.777C448.471 345.657 446.253 347.698 445.218 349.837C444.183 351.976 442.606 354.115 438.002 353.06C432.63 351.788 430.462 351.01 432.147 350.044Z" fill="#2E353A" />
  <path d="M487.062 179.911C487.062 179.911 488.392 237.821 490.442 261.291C493.104 291.897 487.426 338.698 487.426 338.698L493.715 338.974C493.715 338.974 506.874 297.446 503.917 263.203C513.39 225.559 505.889 183.272 505.889 183.272L487.062 179.911Z" fill="#B97964" />
  <path d="M477.648 351.956C478.578 351.396 479.604 351.012 480.674 350.822C480.674 350.822 484.163 348.23 486.923 339.319L491.073 338.846C491.778 338.779 492.488 338.932 493.102 339.286C493.717 339.639 494.206 340.174 494.503 340.818C494.592 340.994 494.651 341.184 494.681 341.379C494.745 342.387 494.745 343.398 494.681 344.406C494.428 347.771 493.974 351.119 493.32 354.43L492.591 354.322L493.202 347.993C493.399 345.845 491.408 348.122 490.61 350.349C489.811 352.577 488.481 354.884 483.779 354.341C478.318 353.632 476.08 353.099 477.648 351.956Z" fill="#2E353A" />
  <path d="M508.293 81.3995C508.293 81.3995 511.418 81.567 514.05 86.7026C516.681 91.8381 513.389 97.5453 512.729 100.276C512.068 103.006 508.786 105.421 514.207 109.551C519.629 113.681 522.882 118.068 518.485 122.533C514.089 126.998 518.919 130.419 512.571 133.731C506.223 137.043 482.832 132.084 479.875 125.677C476.918 119.27 480.486 114.401 480.674 112.489C480.861 110.576 476.918 108.615 475.932 102.356C474.947 96.0963 479.993 94.7558 480.674 91.8972C481.354 89.0387 478.19 85.431 480.674 79.3492C483.158 73.2674 507.958 71.9564 508.293 81.3995Z" fill="#2E353A" />
  <path d="M524.034 166.673C520.299 167.156 515.981 159.862 512.857 153.06C510.185 147.294 508.322 141.873 508.322 141.873L510.294 136.313L515.439 121.804C515.439 121.804 519.037 126.821 524.448 145.924C525.316 148.999 526.361 152.439 527.317 156.284C527.31 157.255 527.61 158.204 528.174 158.994C528.174 161.882 528.519 166.091 524.034 166.673Z" fill="#FFB864" />
  <path opacity="0.2" d="M512.788 153.06C510.126 147.294 508.293 141.873 508.293 141.873L510.264 136.313C511.644 140.157 513.665 147.126 512.788 153.06Z" fill="black" />
  <path opacity="0.2" d="M528.175 158.994C526.204 160.295 524.143 160.276 522.99 157.9C520.654 153.1 522.911 148.349 524.508 145.914C525.385 148.989 526.391 152.429 527.347 156.274C527.315 157.247 527.607 158.204 528.175 158.994Z" fill="black" />
  <path d="M469.368 164.78C469.368 164.78 489.082 171.838 507.869 170.527C507.869 170.527 506.164 147.264 496.307 143.124C486.45 138.984 469.368 144.899 469.368 164.78Z" fill="#FFB864" />
  <path opacity="0.2" d="M469.368 164.78C469.368 164.78 489.082 171.838 507.869 170.527C507.869 170.527 506.164 147.264 496.307 143.124C486.45 138.984 469.368 144.899 469.368 164.78Z" fill="black" />
  <path d="M472.158 166.436L504.686 169.246C505.002 161.182 506.162 153.174 508.146 145.352C508.924 142.237 509.9 138.758 511.152 134.736C511.822 132.587 512.562 130.281 513.39 127.836C514.011 125.953 514.681 123.952 515.42 121.843C511.003 120.433 506.49 119.342 501.916 118.58C497.089 117.723 492.207 117.209 487.308 117.043C480.98 117.043 473.705 117.703 473.705 117.703C473.705 117.703 472.67 117.949 472.019 124.662C471.438 130.921 470.856 143.519 472.158 166.436Z" fill="#FFB864" />
  <path d="M472.315 171.316L504.843 173.997C505.356 165.914 505.74 154.992 508.175 145.352C508.953 142.237 509.929 138.758 511.181 134.736C511.851 132.587 512.591 130.281 513.419 127.836C514.04 125.953 514.71 123.952 515.449 121.843C511.032 120.433 506.519 119.342 501.945 118.58C497.118 117.723 492.236 117.209 487.337 117.043C481.009 117.043 473.734 117.703 473.734 117.703C473.734 117.703 472.699 117.949 472.049 124.662C471.437 130.921 471.004 148.398 472.315 171.316Z" fill="#2E353A" />
  <path d="M489.999 124.199C498.022 123.213 500.428 119.743 500.428 119.743C495.341 114.943 499.57 106.624 499.57 106.624L489.92 108.427C490.146 109.773 490.272 111.134 490.295 112.498C490.373 118.354 487.722 118.413 487.722 118.413C486.026 121.577 489.999 124.199 489.999 124.199Z" fill="#B97964" />
  <path opacity="0.2" d="M489.92 108.427C490.146 109.773 490.272 111.134 490.294 112.498C496.81 112.498 499.57 106.584 499.57 106.584L489.92 108.427Z" fill="black" />
  <path d="M495.252 81.4291C486.864 80.9757 483.917 85.3226 482.832 93.9278C481.472 104.692 483.444 112.499 494.06 110.764C508.461 108.428 509.19 82.1979 495.252 81.4291Z" fill="#B97964" />
  <path d="M503.651 96.0766C503.651 96.0766 500.102 88.9697 500.989 83.6764C500.989 83.6764 484.735 75.9781 482.99 92.8041C482.99 92.8041 482.182 77.7326 496.622 78.1861C511.063 78.6395 509.851 99.7434 502.054 105.618C502.054 105.618 505.839 100.542 503.651 96.0766Z" fill="#2E353A" />
  <path d="M502.182 97.772C502.247 97.2928 502.406 96.8312 502.651 96.4137C502.895 95.9961 503.219 95.6308 503.604 95.3387C503.99 95.0467 504.429 94.8335 504.897 94.7115C505.365 94.5894 505.853 94.5609 506.332 94.6276C508.914 95.0515 509.86 100.453 503.374 101.39C502.379 101.528 501.906 100.542 502.182 97.772Z" fill="#B97964" />
  <path d="M507.869 120.631C507.869 120.631 498.446 128.27 489.732 128.142C481.019 128.013 477.904 118.166 477.904 118.166C477.904 118.166 491.438 114.135 507.869 120.631Z" fill="#B97964" />
  <path d="M507.061 119.191C507.061 119.191 491.605 146.87 507.869 170.527C507.869 170.527 510.077 141.34 515.429 121.803L507.061 119.191Z" fill="#FFB864" />
  <path d="M478.702 117.003C478.702 117.003 478.564 136.589 475.745 143.864C472.926 151.138 469.348 164.78 469.348 164.78C469.348 164.78 466.627 132.153 471.97 117.664L478.702 117.003Z" fill="#FFB864" />
  <path d="M550.6 113.474L548.017 111.996L538.525 114.588L525.711 111.266L522.754 120.995C522.754 120.995 522.142 131.838 522.754 131.966C523.365 132.094 537.421 132.824 537.421 132.824L544.567 128.27L550.6 113.474Z" fill="#E0E0E0" />
  <path d="M522.261 111.996L516.593 134.44L534.089 136.402L546.164 133.07L552.325 111.996L538.525 115.574L522.261 111.996Z" fill="#FFB864" />
  <path opacity="0.4" d="M538.525 115.574L534.089 136.402L516.593 134.44L522.261 111.996L538.525 115.574Z" fill="white" />
  <path opacity="0.2" d="M538.525 115.574L534.089 136.402L546.164 133.07L552.324 111.996L538.525 115.574Z" fill="white" />
  <path d="M523.167 156.727L531.3 141.114C531.005 138.698 531.005 136.255 531.3 133.839C531.792 129.896 531.792 129.019 534.907 129.344C538.022 129.67 542.142 128.822 542.635 129.975C543.128 131.128 540.003 139.576 537.707 141.123L532.926 156.727H523.167Z" fill="#B97964" />
  <path d="M520.536 165.303C525.711 169.709 531.625 165.924 534.908 153.277L524.725 151.966L520.536 165.303Z" fill="#FFB864" />
  <path d="M525.247 149.187L523.167 152.853L536.06 154.588V150.813L525.247 149.187Z" fill="#2E353A" />
  <path d="M419.471 130.261L423.039 132.508L425.376 119.714L421.6 119.536L419.471 130.261Z" fill="#2E353A" />
  <path d="M472.315 171.316L451.812 291.769C451.812 291.769 501.433 297.683 518.249 294.233C518.249 294.233 522.379 208.004 504.824 173.977L472.315 171.316Z" fill="#FFB864" />
  <path opacity="0.4" d="M472.315 171.316L451.812 291.769C451.812 291.769 501.433 297.683 518.249 294.233C518.249 294.233 522.379 208.004 504.824 173.977L472.315 171.316Z" fill="white" />
  <path d="M405.74 118.363L400.634 113.09C397.589 109.906 393.449 105.737 389.338 101.547L383.256 95.436L377.943 90.1033L374.188 86.3379C373.735 85.8845 373.37 85.5296 373.133 85.2832C373.03 85.2267 372.916 85.1923 372.799 85.1821C372.682 85.172 372.564 85.1862 372.453 85.2241L373.843 83.8244C373.805 83.9356 373.791 84.0536 373.801 84.1707C373.811 84.2877 373.846 84.4014 373.902 84.5045L374.967 85.5592L378.752 89.295L384.094 94.5883L390.245 100.641C394.454 104.731 398.643 108.851 401.837 111.887L407.14 116.964L405.74 118.363Z" fill="#2E353A" />
  <path d="M443.483 336.244C443.483 336.244 438.278 347.146 435.272 349.255C435.272 349.255 439.294 351.65 443.483 346.298C448.904 339.398 450.225 341.37 450.225 341.37C450.118 340.179 449.9 339.001 449.575 337.851C448.756 335.593 443.483 336.244 443.483 336.244Z" fill="#B97964" />
  <path d="M488.067 336.126C488.067 336.126 486.588 340.167 484.617 344.603C483.714 346.901 482.375 349.003 480.674 350.793C480.674 350.793 484.104 351.907 485.947 349.758C487.791 347.609 490.955 339.901 494.503 340.749C494.315 340.117 494.05 339.512 493.715 338.945C493.182 338.097 488.067 336.126 488.067 336.126Z" fill="#B97964" />
  <path d="M164.982 354.854L165.79 232.38H157.776L158.575 354.854H164.982Z" fill="#9D9D9D" />
  <path opacity="0.5" d="M158.575 354.854H164.992L165.632 257.003L165.79 232.627H157.776L157.934 257.003L158.575 354.854Z" fill="white" />
  <path opacity="0.2" d="M165.79 232.627L165.632 257.269H157.934L157.776 232.627H165.79Z" fill="black" />
  <path d="M227.229 354.854L220.033 232.38H212.02L220.822 354.854H227.229Z" fill="#9D9D9D" />
  <path opacity="0.5" d="M220.812 354.854H227.229L220.467 239.891L220.033 232.627H212.02L212.552 239.891L220.812 354.854Z" fill="white" />
  <path opacity="0.2" d="M220.467 239.527H212.552L212.02 232.627H220.033L220.467 239.527Z" fill="black" />
  <path d="M102.744 354.854L111.537 232.38H103.523L96.3271 354.854H102.744Z" fill="#9D9D9D" />
  <path opacity="0.3" d="M102.744 354.854L111.004 239.891L111.537 232.627H103.523L103.089 239.891L96.3271 354.854H102.744Z" fill="white" />
  <path opacity="0.2" d="M103.523 232.627H111.536L111.004 239.527H103.089L103.523 232.627Z" fill="black" />
  <path d="M97.1748 228.605H226.381V234.036C226.381 234.316 226.326 234.593 226.219 234.851C226.112 235.109 225.955 235.344 225.757 235.542C225.56 235.739 225.325 235.896 225.067 236.003C224.808 236.11 224.532 236.165 224.252 236.165H99.3039C99.0243 236.165 98.7475 236.11 98.4891 236.003C98.2308 235.896 97.9961 235.739 97.7984 235.542C97.6007 235.344 97.4439 235.109 97.3369 234.851C97.2299 234.593 97.1748 234.316 97.1748 234.036V228.605Z" fill="#9D9D9D" />
  <path opacity="0.4" d="M97.1748 228.605H226.381V234.036C226.381 234.316 226.326 234.593 226.219 234.851C226.112 235.109 225.955 235.344 225.757 235.542C225.56 235.739 225.325 235.896 225.067 236.003C224.808 236.11 224.532 236.165 224.252 236.165H99.3039C99.0243 236.165 98.7475 236.11 98.4891 236.003C98.2308 235.896 97.9961 235.739 97.7984 235.542C97.6007 235.344 97.4439 235.109 97.3369 234.851C97.2299 234.593 97.1748 234.316 97.1748 234.036V228.605Z" fill="white" />
  <path opacity="0.2" d="M226.381 228.605H97.1748V232.39H226.381V228.605Z" fill="black" />
  <path d="M230.127 229.591H93.4294C92.8638 229.588 92.3223 229.362 91.9233 228.961C91.5243 228.56 91.3003 228.017 91.3003 227.452C91.3003 226.887 91.5246 226.345 91.9239 225.946C92.3232 225.547 92.8647 225.323 93.4294 225.323H230.127C230.692 225.323 231.233 225.547 231.633 225.946C232.032 226.345 232.256 226.887 232.256 227.452C232.256 228.017 232.032 228.56 231.633 228.961C231.234 229.362 230.693 229.588 230.127 229.591Z" fill="#9D9D9D" />
  <path opacity="0.4" d="M230.127 229.591H93.4294C92.8638 229.588 92.3223 229.362 91.9233 228.961C91.5243 228.56 91.3003 228.017 91.3003 227.452C91.3003 226.887 91.5246 226.345 91.9239 225.946C92.3232 225.547 92.8647 225.323 93.4294 225.323H230.127C230.692 225.323 231.233 225.547 231.633 225.946C232.032 226.345 232.256 226.887 232.256 227.452C232.256 228.017 232.032 228.56 231.633 228.961C231.234 229.362 230.693 229.588 230.127 229.591Z" fill="white" />
  <path d="M154.365 228.605V232.794C154.365 233.237 154.452 233.675 154.622 234.084C154.791 234.493 155.04 234.865 155.353 235.178C155.666 235.491 156.037 235.739 156.446 235.909C156.855 236.078 157.294 236.165 157.736 236.165H225.228C225.793 236.165 226.336 235.941 226.737 235.542C227.137 235.143 227.364 234.602 227.367 234.036V228.605H154.365Z" fill="#9D9D9D" />
  <path opacity="0.6" d="M154.365 228.605V232.794C154.365 233.237 154.452 233.675 154.622 234.084C154.791 234.493 155.04 234.865 155.353 235.178C155.666 235.491 156.037 235.739 156.446 235.909C156.855 236.078 157.294 236.165 157.736 236.165H225.228C225.793 236.165 226.336 235.941 226.737 235.542C227.137 235.143 227.364 234.602 227.367 234.036V228.605H154.365Z" fill="white" />
  <path opacity="0.2" d="M227.367 228.605H154.365V232.39H227.367V228.605Z" fill="black" />
  <path d="M230.985 225.323H152.552C151.986 225.323 151.444 225.547 151.043 225.946C150.642 226.345 150.416 226.886 150.413 227.452C150.413 228.019 150.638 228.563 151.04 228.964C151.441 229.365 151.985 229.591 152.552 229.591H231.103C231.402 229.591 231.697 229.528 231.971 229.407C232.244 229.285 232.488 229.108 232.688 228.886C232.888 228.663 233.039 228.401 233.131 228.117C233.223 227.833 233.254 227.532 233.222 227.235C233.148 226.698 232.879 226.206 232.466 225.854C232.054 225.502 231.527 225.313 230.985 225.323Z" fill="#9D9D9D" />
  <path opacity="0.6" d="M230.985 225.323H152.552C151.986 225.323 151.444 225.547 151.043 225.946C150.642 226.345 150.416 226.886 150.413 227.452C150.413 228.019 150.638 228.563 151.04 228.964C151.441 229.365 151.985 229.591 152.552 229.591H231.103C231.402 229.591 231.697 229.528 231.971 229.407C232.244 229.285 232.488 229.108 232.688 228.886C232.888 228.663 233.039 228.401 233.131 228.117C233.223 227.833 233.254 227.532 233.222 227.235C233.148 226.698 232.879 226.206 232.466 225.854C232.054 225.502 231.527 225.313 230.985 225.323Z" fill="white" />
  <path d="M169.95 207.639L161.325 223.568" stroke="#2E353A" stroke-width="2" stroke-miterlimit="10" />
  <path d="M88.6982 190.241C88.6982 190.241 96.4853 176.372 97.7667 173.662C99.0482 170.951 102.498 151.848 102.498 151.848C102.182 150.933 101.973 149.983 101.877 149.019C101.877 148.033 102.498 143.47 102.498 143.47C102.498 143.47 102.498 143.105 104.962 142.366C107.427 141.626 110.137 140.641 110.384 141.745C110.63 142.849 110.009 150.498 109.27 151.237C108.695 151.853 108.168 152.512 107.693 153.208C107.693 153.208 105.613 173.573 104.667 176.57C103.72 179.566 95.9629 195.604 95.9629 195.604L88.6982 190.241Z" fill="#E4897B" />
  <path d="M125.041 207.432C125.041 207.432 144.459 215.87 147.269 216.855C150.078 217.841 158.515 218.038 158.515 218.038C159.403 217.648 160.332 217.36 161.285 217.181C162.271 217.092 166.855 217.319 166.855 217.319C166.855 217.319 167.229 217.319 168.175 219.684C169.122 222.05 170.334 224.692 169.25 225.027C168.166 225.362 160.507 225.411 159.708 224.741L158.91 224.061C158.91 224.061 148.067 226.643 145.011 225.963C141.956 225.283 120.369 219.063 120.369 219.063L125.041 207.432Z" fill="#E4897B" />
  <path d="M99.0872 192.637C98.3904 196.097 96.9325 199.36 94.8191 202.188C90.6594 208.102 84.7945 211.947 83.2075 205.865C80.7925 196.678 91.034 185.165 91.034 185.165L99.0872 192.637Z" fill="#A2D1F2" />
  <path opacity="0.2" d="M99.0874 192.637C98.3905 196.098 96.9326 199.36 94.8193 202.188C94.3504 201.727 93.989 201.168 93.7607 200.551C93.5324 199.935 93.4429 199.275 93.4984 198.62C94.0701 194.509 99.0874 192.637 99.0874 192.637Z" fill="black" />
  <path d="M119.719 185.746C119.163 187.769 118.034 189.587 116.466 190.981C114.145 193.06 111.154 194.236 108.038 194.293C104.957 194.367 101.965 193.255 99.6793 191.188C95.1549 187.107 95.2929 182.415 94.7507 174.431C94.2086 166.446 102.883 160.374 111.665 163.588C120.448 166.801 121.69 178.58 119.719 185.746Z" fill="#E4897B" />
  <path d="M108.925 158.482C108.925 158.482 115.066 156.235 119.373 159.813C123.681 163.391 123.444 172.006 119.373 176.077C119.373 176.077 120.487 174.598 117.284 171.02C114.08 167.442 108.925 158.482 108.925 158.482Z" fill="#2E353A" />
  <path opacity="0.2" d="M116.465 190.981C114.145 193.06 111.153 194.236 108.038 194.293C108.615 192.958 109.554 191.811 110.748 190.981C112.601 191.927 114.898 191.483 116.465 190.981Z" fill="black" />
  <path d="M118.043 321.587L116.998 328.122L116.042 334.154H107.298L108.057 326.436L108.777 319.043L118.043 321.587Z" fill="#E4897B" />
  <path d="M115.549 330.734L106.677 330.172C106.604 330.164 106.529 330.171 106.458 330.191C106.386 330.212 106.32 330.247 106.262 330.294C106.204 330.341 106.156 330.398 106.121 330.464C106.086 330.529 106.064 330.601 106.056 330.675L105.179 337.673C105.158 338.042 105.282 338.403 105.526 338.68C105.769 338.957 106.112 339.127 106.48 339.152C109.575 339.3 111.064 339.211 114.967 339.428C117.362 339.566 122.084 340.079 125.396 339.753C128.708 339.428 128.294 336.175 126.865 336.017C123.484 335.633 118.979 333.149 116.879 331.256C116.505 330.942 116.038 330.758 115.549 330.734Z" fill="#2E353A" />
  <path opacity="0.2" d="M118.042 321.587L116.997 328.122L108.057 326.436L108.777 319.043L118.042 321.587Z" fill="black" />
  <path d="M128.659 271.937C124.607 266.594 114.129 263.883 105.702 262.533L102.863 283.676C108.057 284.751 110.216 287.619 110.502 288.812C111.872 294.47 105.327 323.972 105.327 323.972L118.94 327.254C118.94 327.254 135.884 281.468 128.659 271.937Z" fill="#2E353A" />
  <path opacity="0.2" d="M128.659 271.937C124.607 266.594 114.129 263.883 105.702 262.533L102.863 283.676C108.057 284.751 110.216 287.619 110.502 288.812C111.872 294.47 105.327 323.972 105.327 323.972L118.94 327.254C118.94 327.254 135.884 281.468 128.659 271.937Z" fill="black" />
  <path d="M142.685 321.587L141.64 328.122L140.684 334.154H131.941L132.7 326.436L133.419 319.043L142.685 321.587Z" fill="#E4897B" />
  <path d="M140.191 330.734L131.32 330.172C131.246 330.164 131.171 330.171 131.1 330.191C131.029 330.212 130.962 330.247 130.905 330.294C130.847 330.341 130.799 330.398 130.764 330.464C130.728 330.529 130.706 330.601 130.699 330.675L129.822 337.673C129.8 338.042 129.925 338.403 130.168 338.68C130.412 338.957 130.755 339.127 131.123 339.152C134.218 339.3 135.706 339.211 139.61 339.428C142.005 339.566 146.727 340.079 150.039 339.753C153.351 339.428 152.937 336.175 151.507 336.017C148.126 335.633 143.622 333.149 141.522 331.256C141.148 330.942 140.68 330.758 140.191 330.734Z" fill="#2E353A" />
  <path opacity="0.2" d="M142.685 321.587L141.64 328.122L132.7 326.436L133.419 319.043L142.685 321.587Z" fill="black" />
  <path d="M99.8659 189.877C99.8659 194.569 99.3139 199.024 96.4258 201.114C100.42 204.523 104.881 207.345 109.674 209.492C114.799 205.855 112.434 202.849 112.434 202.849C107.949 200.394 109.348 194.648 110.748 191.02C110.748 191.02 109.644 189.236 103.355 189.216C100.566 189.167 99.8659 189.877 99.8659 189.877Z" fill="#E4897B" />
  <path d="M75.6671 257.457C75.6671 257.457 66.5 283.381 92.4832 283.381C118.466 283.381 120.566 273.248 118.368 261.321L75.6671 257.457Z" fill="#2E353A" />
  <path d="M118.368 261.212C118.368 261.212 146.066 262.375 153.302 271.907C160.537 281.439 143.582 327.254 143.582 327.254L129.97 323.972C129.97 323.972 137.451 292.735 134.632 288.694C131.813 284.652 116.495 284.406 95.7955 283.322C75.0956 282.237 118.368 261.212 118.368 261.212Z" fill="#2E353A" />
  <path d="M93.873 200.345L96.4556 194.283C96.4556 194.283 111.192 194.815 115.667 201.528C120.142 208.24 93.873 200.345 93.873 200.345Z" fill="#A2D1F2" />
  <path d="M123.927 209.571C124.371 217.151 123.927 232.725 118.368 261.321L75.667 257.457C75.943 251.414 84.9819 230.705 83.0598 203.44C82.9886 202.474 83.1087 201.504 83.4132 200.584C83.7177 199.665 84.2006 198.814 84.8342 198.082C85.4678 197.349 86.2397 196.749 87.1057 196.315C87.9717 195.882 88.9148 195.623 89.8809 195.554H90.1273C92.2268 195.475 105.031 199.261 111.044 200.167C113.36 200.591 115.608 201.153 117.52 201.695C119.276 202.177 120.837 203.194 121.986 204.606C123.134 206.018 123.813 207.754 123.927 209.571Z" fill="#A2D1F2" />
  <path opacity="0.2" d="M123.927 209.571C124.371 217.151 123.927 232.725 118.368 261.321L75.667 257.457C75.943 251.414 84.9819 230.705 83.0598 203.44C82.9886 202.474 83.1087 201.504 83.4132 200.584C83.7177 199.665 84.2006 198.814 84.8342 198.082C85.4678 197.349 86.2397 196.749 87.1057 196.315C87.9717 195.882 88.9148 195.623 89.8809 195.554H90.1273C92.2268 195.475 105.031 199.261 111.044 200.167C113.36 200.591 115.608 201.153 117.52 201.695C119.276 202.177 120.837 203.194 121.986 204.606C123.134 206.018 123.813 207.754 123.927 209.571Z" fill="black" />
  <path d="M117.52 201.695C112.828 200.71 112.306 214.391 115.716 218.334C119.127 222.277 137.313 225.234 137.313 225.234L140.684 212.913C140.684 212.913 125.731 203.47 117.52 201.695Z" fill="#A2D1F2" />
  <path d="M98.0229 189.394C98.0229 189.394 92.02 187.748 89.2304 174.864C86.4409 161.981 98.7129 156.235 112.621 159.024C126.53 161.814 119.728 181.695 107.624 189.394C104.516 190.483 101.13 190.483 98.0229 189.394Z" fill="#2E353A" />
  <path d="M113.213 178.935C113.546 180.533 114.477 181.943 115.815 182.878C117.52 184.002 118.841 182.287 118.772 180.079C118.693 178.107 117.717 175.101 115.815 174.884C113.913 174.667 112.74 176.846 113.213 178.935Z" fill="#E4897B" />
  <path d="M96.6623 354.854H102.823L104.026 303.174L104.38 287.826H95.1147L95.4696 303.174L96.6623 354.854Z" fill="#9D9D9D" />
  <path opacity="0.4" d="M96.6623 354.854H102.823L104.026 303.174L104.38 287.826H95.1147L95.4696 303.174L96.6623 354.854Z" fill="white" />
  <path opacity="0.2" d="M104.38 287.826L104.026 303.597H95.4696L95.1147 287.826H104.38Z" fill="black" />
  <path d="M132.306 354.854L128.412 288.911H120.359L125.81 354.854H132.306Z" fill="#9D9D9D" />
  <path opacity="0.5" d="M125.8 354.854H132.306L128.856 296.402L128.412 288.812H120.359L120.98 296.402L125.8 354.854Z" fill="white" />
  <path opacity="0.2" d="M120.359 288.812L120.98 296.698H128.856L128.412 288.812H120.359Z" fill="black" />
  <path d="M73.6759 354.854L79.1268 288.911H71.0736L67.1899 354.854H73.6759Z" fill="#9D9D9D" />
  <path opacity="0.5" d="M73.6956 354.854L78.5058 296.402L79.1268 288.812H71.0736L70.6301 296.402L67.1899 354.854H73.6956Z" fill="white" />
  <path opacity="0.2" d="M79.1267 288.812L78.5057 296.698H70.6299L71.0734 288.812H79.1267Z" fill="black" />
  <path d="M71.6942 280.266H127.801C128.448 280.266 129.089 280.393 129.687 280.641C130.285 280.889 130.828 281.252 131.286 281.709C131.743 282.167 132.106 282.71 132.354 283.308C132.602 283.906 132.729 284.547 132.729 285.194V291.769H66.7656V285.175C66.7708 283.871 67.2924 282.622 68.2161 281.702C69.1398 280.782 70.3904 280.266 71.6942 280.266Z" fill="#9D9D9D" />
  <path d="M92.6422 216.853L87.7593 217.522L97.4339 288.149L102.317 287.48L92.6422 216.853Z" fill="#9D9D9D" />
  <path d="M62.0821 216.85L57.1992 217.519L66.8738 288.146L71.7568 287.477L62.0821 216.85Z" fill="#9D9D9D" />
  <g opacity="0.4">
    <path opacity="0.4" d="M92.6422 216.853L87.7593 217.522L97.434 288.149L102.317 287.48L92.6422 216.853Z" fill="white" />
  </g>
  <g opacity="0.4">
    <path opacity="0.4" d="M62.0817 216.85L57.1987 217.519L66.8734 288.146L71.7563 287.477L62.0817 216.85Z" fill="white" />
  </g>
  <path d="M133.902 286.032H65.5828C64.4886 286.032 63.6016 286.919 63.6016 288.013V289.807C63.6016 290.902 64.4886 291.789 65.5828 291.789H133.902C134.996 291.789 135.883 290.902 135.883 289.807V288.013C135.883 286.919 134.996 286.032 133.902 286.032Z" fill="#9D9D9D" />
  <path opacity="0.6" d="M133.902 286.032H65.5828C64.4886 286.032 63.6016 286.919 63.6016 288.013V289.807C63.6016 290.902 64.4886 291.789 65.5828 291.789H133.902C134.996 291.789 135.883 290.902 135.883 289.807V288.013C135.883 286.919 134.996 286.032 133.902 286.032Z" fill="white" />
  <path d="M99.4618 240.798H55.6077L52.0986 213.435H95.9527L99.4618 240.798Z" fill="#9D9D9D" />
  <path opacity="0.6" d="M99.4618 240.798H55.6077L52.0986 213.435H95.9527L99.4618 240.798Z" fill="white" />
  <defs>
    <linearGradient id="paint0_linear" x1="292.5" y1="73.5" x2="292.5" y2="412" gradientUnits="userSpaceOnUse">
      <stop stop-color="white" stop-opacity="0.33" />
      <stop offset="0.679925" stop-color="white" stop-opacity="0" />
    </linearGradient>
  </defs>
</svg>